Coordinates																	
version=1																	
nRows=57																	
nColumns=18																	
inDegrees=yes																	
																	
"Units are S.I. units (second, meters, Newtons, ...)"																	
"If the header above contains a line with 'inDegrees', this indicates whether rotational values are in degrees (yes) or radians (no)."																	
																	
endheader																	
time	/jointset/hip_l/hip_flexion_l/value	/jointset/hip_l/hip_adduction_l/value	/jointset/hip_l/hip_rotation_l/value	/jointset/hip_r/hip_flexion_r/value	/jointset/hip_r/hip_adduction_r/value	/jointset/hip_r/hip_rotation_r/value	/jointset/knee_l/knee_angle_l/value	/jointset/knee_r/knee_angle_r/value	/jointset/ankle_l/ankle_angle_l/value	/jointset/ankle_r/ankle_angle_r/value	/jointset/subtalar_l/subtalar_angle_l/value	/jointset/subtalar_r/subtalar_angle_r/value	/jointset/mtp_l/mtp_angle_l/value	/jointset/mtp_r/mtp_angle_r/value	/jointset/back/lumbar_extension/value	/jointset/back/lumbar_bending/value	/jointset/back/lumbar_rotation/value
0.01	37.94471302	-8.66693792	14.82027834	62.229096	-1.32832789	9.59537429	-117.6948732	-101.3949423	-41.4527088	25.41299037	21.8321058	27.10781639	-6.05599323	36.55288198	6.96938362	31.19791126	-14.6868128
0.02	59.44452821	-4.19602176	23.15985927	7.48849185	-19.47342311	-15.41345502	-97.49118039	-110.1924762	0.93149797	-8.2840974	3.34669717	15.84063471	1.15405758	44.27472955	-26.209775	-28.00024922	22.78462692
0.03	33.21217103	-12.28549499	33.49256188	53.56499506	-8.46494778	32.49689234	-10.36357691	-69.62770057	-36.60340712	2.30094008	28.05259729	-27.85338171	22.62994442	11.21664647	38.85693028	35.69668943	30.15257343
0.04	12.27070051	-14.79789008	-1.00614734	24.98693302	-7.74302296	-8.01489826	1.17707204	-41.86932666	-8.09325156	-22.78393539	-15.8596969	-1.98779301	8.40368502	-9.48922919	40.6029125	-15.57409736	26.78165951
0.05	42.3868801	9.57661992	-16.11898498	-17.31856224	4.36999573	34.48309448	2.78872361	-24.10775012	1.33074333	-3.82398529	17.29097864	-7.09449507	-9.18976553	-3.89331363	2.77553296	-10.68999767	17.37801137
0.06	50.12928536	11.61583108	-0.61933209	4.62396541	12.29505569	2.81382744	-12.30189582	-37.51793025	-17.64893323	27.62174481	-19.46477813	-7.07602526	26.83605396	57.41146257	6.28397315	-11.55668219	-13.45592566
0.07	10.59889053	10.13371711	18.77139264	-13.4295857	14.48697245	17.63085192	-116.6962721	-13.25813465	29.75096165	37.75197537	-4.33283089	-7.93919108	55.13955668	36.46234375	6.9465891	5.32564477	-29.74473519
0.08	38.60503486	1.54512782	14.61617833	59.98568201	-16.75661672	30.38127222	-3.78908023	-102.909826	38.62958299	-41.5178488	4.97014829	-34.90633744	7.12805774	55.5549693	12.08023775	-33.36085702	-23.17280269
0.09	55.60310259	-0.1668005	-5.22208077	-24.02711698	-3.9537191	8.77340961	-35.5422125	-54.33635939	-33.52067628	-7.76898587	3.25557921	33.06805204	6.16389885	27.51209419	24.08113209	-26.84639976	-27.20592409
0.1	1.39213184	-14.70363801	-10.52019627	13.19073159	19.65012116	2.17928783	-58.99404567	-10.13402727	-3.87350504	-45.4951916	34.29092606	9.71307051	43.18115202	45.54101566	-28.15549489	-37.18660026	-27.52686963
0.11	60.45484261	-5.28661679	28.44563517	64.38491988	-4.19552832	-8.36928401	9.10756347	-63.06301026	-30.71960415	-0.37183627	6.99827263	-24.71798746	49.06500922	-8.4243342	-28.68687571	24.23444822	-39.82557942
0.12	-0.58520264	-10.40779748	8.28062661	59.53046272	9.99026262	26.38309231	-111.0959887	9.2275979	-13.17904106	24.40082251	-12.70717374	-16.37581359	46.07742021	28.12059482	-8.70081064	-28.51034183	0.2076799
0.13	10.56668852	0.29244653	6.78689701	-22.95915008	1.06269081	-9.98518052	-66.13347747	-119.5492932	29.43365817	-38.51232125	-20.14007419	-4.67044228	-4.81315323	59.64121402	16.92926046	-34.99122263	16.49372166
0.14	-4.73199838	17.02593418	17.64229026	16.72148291	-19.7491429	-6.23873405	-117.4212475	-46.46325389	-5.10511253	-30.90991763	-13.51580058	10.4321175	28.84805737	59.05159214	-44.52768061	8.84066227	-2.88424021
0.15	62.63666885	7.71866979	34.16690651	32.37474047	12.17254858	9.46061983	-39.19717208	-96.07797215	8.68692475	45.07122838	2.56095934	-22.23377106	-9.42253717	53.21373529	-44.78711032	42.95794596	-15.33214135
0.16	40.46580028	-19.55963615	22.65132267	-23.79852064	2.52052484	-0.84984177	-5.38884603	-3.029369	42.22160063	39.82041327	-14.1428256	-11.18424613	21.1013413	23.6371511	37.76851689	21.03332886	-13.29867785
0.17	38.50283483	-15.80569956	-13.67080217	-2.20453485	18.21047344	-4.09066561	-9.85915601	-39.88314693	45.73363619	40.34684155	3.9223089	12.85423381	46.85452553	6.48593187	-2.38743715	-38.73892061	-34.09633793
0.18	-22.73395147	13.93237707	34.89762862	-17.06487398	-7.26164416	16.1302604	-113.4908518	-105.4556413	4.75208448	-14.63572223	25.77142691	32.23055321	58.14165653	0.05988805	5.11025315	-18.43640475	-25.20449304
0.19	-11.93201068	-6.97853899	-6.31153844	66.41477435	-18.23026847	-4.95974684	-26.05708648	-51.64684828	-27.38234179	13.95596243	-34.44751963	17.46010906	31.04108952	50.59541004	39.28051722	-28.46189902	-42.58014675
0.2	-28.69128365	17.08151194	-12.82722725	8.60428861	-2.86302847	-4.84618023	-69.15757898	-72.50394427	-21.36884084	-30.27428415	10.92031559	-25.6852477	35.83740343	29.62929686	-29.13962145	9.41606928	12.82530005
0.21	-11.73661659	-9.1927267	-10.09050792	20.51449664	-18.29915065	5.1330611	-116.191711	-57.21743421	-28.49440365	29.7450654	30.51609629	-28.44594655	29.37964002	-5.71143087	39.32605098	-9.59471809	22.15514807
0.22	48.08372625	15.65263446	-0.20332345	33.37652729	-8.50335792	15.84418333	-53.89056261	-34.69661234	43.51134508	-10.32559932	26.98779512	-16.78402729	45.11658209	43.71675948	38.28181312	40.98936077	4.12984947
0.23	61.19145215	-6.19286744	7.51065759	7.96370431	-10.31450421	-6.91396781	-67.50411007	4.8668119	22.42071014	-32.02810457	-11.17573101	-1.97891952	42.80079984	44.09484208	10.39585902	29.31588459	-18.90542731
0.24	-27.65870575	-9.87345959	14.50943661	33.47181597	-4.9574641	-19.35265401	1.39550699	-68.67828242	9.2306013	-12.42916096	34.81160411	-31.09561625	-1.15790541	-1.47477903	22.86461377	31.67257175	0.93646078
0.25	-12.69836073	-1.95199641	-17.96034678	25.07151297	-7.40380311	1.13101408	-78.90232954	-3.60363196	30.12432152	-13.23645331	-21.4947338	9.75573146	17.58717895	56.95359734	35.13392955	-30.75633301	-44.9143422
0.26	8.29944545	0.23386308	19.09259057	66.19031944	9.57356946	3.58481375	-15.84234207	-32.75880643	-27.30318294	-46.89779509	-23.49846401	15.61047127	26.16417109	49.50236429	16.6908368	4.71435805	40.98703697
0.27	2.02101199	7.3137584	-0.00468946	-29.16798078	12.00849629	-0.97814237	-104.7156336	-76.51500079	6.99941988	-21.03100564	0.50961615	12.42059084	12.14289344	14.33925245	43.73642547	8.65548863	12.18092838
0.28	-9.54967144	10.58065766	4.43074069	37.90154234	12.51553219	8.34436458	-108.1998011	-30.35129008	38.62220476	-19.09850031	-19.13640225	2.36267607	-2.49208947	39.93422083	14.93517667	-20.21854595	4.76480218
0.29	24.78311726	1.74984464	-6.2450847	16.88417395	11.42724344	12.91513301	-23.48865847	-30.38505183	42.9117373	17.15942844	10.1280531	31.58807784	1.5562019	49.38248424	-9.12359909	-13.92152189	-36.78152147
0.3	36.31046196	-9.36072438	-3.15831329	46.12611962	7.23956732	19.59333082	-13.29836137	-47.32451529	-23.90475689	-42.13029397	-25.52648472	23.30034412	23.47355392	51.53215243	-34.06589475	35.47835698	-1.69868207
0.31	-5.02730468	-17.9765284	24.51990969	39.01174087	13.48722213	34.65008108	-3.59514096	-35.23569728	-40.85726998	3.62923289	17.54885014	-33.79627654	40.25542461	43.37732936	-25.59424407	-16.87159888	-39.49598498
0.32	-26.73274044	-17.41585349	32.4478302	64.6508543	10.48465713	-7.48460032	-72.766249	-10.92271555	14.76342782	-37.85392212	-8.42131378	-5.82828906	21.0692324	6.17220202	21.99475888	-20.11759784	1.97964018
0.33	62.71453508	2.18058166	17.70996828	45.56401833	-19.0102685	20.34076219	-39.26653514	-41.13990987	34.16093836	-39.53457692	24.68269775	-14.90786752	34.30221211	24.2984868	15.03423209	-35.3711158	-8.06923322
0.34	21.08172194	-17.8898659	20.61275327	8.9113079	16.83678775	21.19566461	5.94790778	-18.31452442	-18.40399939	-35.34426832	-22.26084899	8.80300726	16.37215418	8.56619037	-20.68889896	3.39024683	33.64959105
0.35	59.42670595	6.49271766	16.55755545	19.32223507	-2.07163527	28.50275555	-97.57737326	-96.77429126	14.1680301	-35.91884375	-30.59397137	4.63531866	12.87742992	28.1239105	-19.51077319	5.84207811	-10.11322944
0.36	8.02183395	-5.59040549	-18.90098192	44.67265905	17.95074248	31.66195847	4.7641074	-70.81203825	28.50123067	4.5095827	-34.88665776	19.00506173	31.25691361	-8.38144119	-35.96633489	32.578945	-35.70972154
0.37	11.15611314	-2.19079862	-2.95285304	-16.94670099	-17.61300131	8.81850492	-108.2359934	-3.09499864	-48.77707929	-18.83273376	-19.26854846	-3.21983953	11.76718422	58.0994202	32.04155402	-7.38151563	21.29471592
0.38	38.62065869	16.14507777	-8.73114348	-15.47432615	-14.84015407	-5.9052821	-14.34277512	-97.99720598	3.27549299	14.87734737	28.69030185	-28.89723106	7.92338538	0.00771475	-25.13210465	5.16798196	34.02569608
0.39	23.33479828	7.57339827	8.40331359	40.73381831	3.66072089	30.14804918	-73.06786359	-93.7351632	-43.61244907	44.79269949	5.25597373	-2.2961229	52.48744956	-1.08051992	36.94460905	3.38842957	-19.59633961
0.4	-3.43515744	-18.70380716	-6.37380604	10.15597457	-15.53295607	16.49718555	-9.46187065	-35.56769197	-21.71564698	42.3623697	8.41219995	26.64032916	-2.23624983	43.6892385	-16.6635444	-18.63711084	43.53449934
0.41	-18.47340997	15.32920553	16.91304424	-16.93776053	18.51614816	4.78157516	-95.33090884	-21.52405145	-38.89348644	6.77098472	-24.7178588	24.85123569	59.21886406	18.34729862	41.56992651	22.08301336	-1.6786199
0.42	5.69792221	-9.92332211	-4.27686599	69.02283268	-6.25425206	7.68634599	-55.41178721	-103.3816495	31.96221513	-46.1834107	8.82350024	-22.70783936	7.35401673	26.65490447	34.3945585	-12.7817797	-44.51089829
0.43	21.77949797	11.11487469	26.14821048	-8.44934467	2.09106592	11.49618729	-102.0069676	-111.9629661	-4.81506948	38.49114817	8.60502811	-10.77645917	45.33497618	57.73852528	-14.84927976	-2.66205428	42.97525076
0.44	12.46526136	-4.6852587	23.00973095	46.96833512	1.4416977	-17.30756948	-98.61108232	-118.5376526	-1.36998353	-12.64301491	10.8379564	-25.99413856	42.73400526	-8.00546526	2.02467234	17.76793938	25.9176799
0.45	13.62697483	-11.97986976	14.20223802	-4.93389679	-8.83393452	12.96693435	-80.23947496	-23.01297861	-12.86475763	-14.55040265	-25.25722577	-18.57179239	6.09644562	7.77473076	-39.64176688	-2.12183341	32.82102859
0.46	33.03704972	15.3248669	25.19506903	68.91357657	-2.02541508	17.9586114	-61.18457945	-98.65448368	-14.8847534	10.39079761	-31.41388537	-19.88860565	18.56244666	17.91825108	-19.28929449	34.13748722	1.57176906
0.47	67.74251149	8.16038638	18.34865531	39.4758183	-16.9037426	5.0169071	-17.78148213	-71.57165682	11.08633884	-42.14334265	30.73178971	-33.03539359	-0.18882521	24.50280497	10.34967871	2.58232404	-7.49243085
0.48	63.94074071	19.34824116	14.78632598	69.59126562	13.62299344	-6.1907876	-42.85198627	-51.95984186	6.82276572	-5.46373165	-30.67252597	34.74334415	-6.7207224	6.09867834	26.32335505	25.52982356	20.25851596
0.49	37.51900103	7.92640489	-1.48425225	56.22406887	-8.55904848	33.06670474	-6.9823603	-87.4426878	-17.79503518	21.90728938	-17.07639426	14.4896391	56.22956252	45.22564565	-12.94879282	-33.70953641	6.91754609
0.5	58.89502767	10.66060111	-15.42819433	-14.28835582	-6.23785947	31.35782956	-60.52846746	-91.88779363	41.17816467	29.92577787	-30.73386556	-16.76822117	45.07299438	-9.6036686	34.87150023	-32.91276584	0.55134036
0.51	68.88476652	5.20876718	-9.85047758	67.97043709	-3.22659449	-8.12393187	-65.10702922	-2.93253122	17.32525979	36.7742463	-25.27595706	-29.20492223	44.1286506	23.92044419	30.08153259	-40.69935507	-36.31744096
0.52	20.27331388	-15.39312986	-0.58373539	45.99760165	-9.60038075	14.02704536	-65.3235356	-86.0570182	-16.38514146	-36.53428282	-34.39702373	-18.11388709	57.1313699	45.62970868	-38.87813373	-1.71233889	-7.52184799
0.53	57.93454504	2.04124259	-5.28325442	67.67201107	-15.98914746	9.90051526	-60.62909453	-83.86361831	35.67768125	44.6023778	-33.75968574	-24.6305228	35.73863222	9.78672149	-23.92152562	-29.43820615	-17.01916086
0.54	-7.53656331	6.25243659	18.65907896	46.12307508	10.18980762	0.54304183	-114.4380511	-24.71023723	24.1556936	37.53051221	2.83707789	27.06974147	-7.15872791	10.31125652	13.91136238	-8.35533068	2.8278566
0.55	55.37535789	0.24388033	25.61037777	28.2068381	6.7982857	21.54623484	-95.59884679	-35.54777626	-45.62517896	6.8083318	-12.6805902	-0.95679736	31.53802233	51.63195395	32.94302234	-37.43366036	0.12894374
0.56	40.34739481	3.21885454	-5.85891538	69.76199468	14.00332464	-16.83316689	0.15475175	-82.23691561	-12.7385562	25.61491297	16.5900244	33.15961165	34.34393778	40.27482462	41.35329317	-16.3173933	22.92736875
0.57	16.34442624	12.83307538	-14.29118376	-14.54629708	-17.1349196	29.12165605	-69.22187259	-111.0440619	-39.17662465	25.72628349	3.93423058	-2.72354849	-0.06532033	9.19680649	23.29050733	-14.53832172	2.16263364
